# This file uses centimeters as units for non-parametric coordinates.

mtllib box.mtl
g default
v 411.931170 638.500727 68.161074
v 411.931170 630.975929 68.161074
v 611.931174 638.500727 68.161074
v 611.931174 630.975929 68.161074
v 611.931174 638.500727 -49.460561
v 611.931174 630.975929 -49.460561
v 411.931170 638.500727 -49.460561
v 411.931170 630.975929 -49.460561
vt 0.961975 0.248016
vt 0.961962 0.255702
vt 0.757678 0.247677
vt 0.757666 0.255363
vt 0.961763 0.375851
vt 0.757466 0.375512
vt 0.962174 0.127867
vt 0.757878 0.127528
vt 0.749992 0.247664
vt 0.750191 0.127515
vt 0.969861 0.127880
vt 0.969661 0.248029
vn 0.000000 -0.000000 1.000000
vn 0.000000 -0.000000 1.000000
vn 0.000000 -0.000000 1.000000
vn 0.000000 -0.000000 1.000000
vn -0.000000 -1.000000 0.000000
vn -0.000000 -1.000000 0.000000
vn -0.000000 -1.000000 0.000000
vn -0.000000 -1.000000 0.000000
vn 0.000000 1.000000 0.000000
vn 0.000000 1.000000 0.000000
vn 0.000000 1.000000 0.000000
vn 0.000000 1.000000 0.000000
vn 1.000000 -0.000000 0.000000
vn 1.000000 -0.000000 0.000000
vn 1.000000 -0.000000 0.000000
vn 1.000000 -0.000000 0.000000
vn -1.000000 0.000000 0.000000
vn -1.000000 0.000000 0.000000
vn -1.000000 0.000000 0.000000
vn -1.000000 0.000000 0.000000
s off
g pasted__Platform_Pass_01 pasted__Level_Patform pasted__Heaven1 pasted__Env_Mod group
usemtl pasted__lambert2SG
f 1/1/1 2/2/2 4/4/3 3/3/4
f 2/2/5 8/5/6 6/6/7 4/4/8
f 7/7/9 1/1/10 3/3/11 5/8/12
f 5/8/13 3/3/14 4/9/15 6/10/16
f 1/1/17 7/7/18 8/11/19 2/12/20
